<?xml version="1.0" encoding="UTF-8"?>
<!DOCTYPE svg PUBLIC "-//W3C//DTD SVG 1.1//EN" "http://www.w3.org/Graphics/SVG/1.1/DTD/svg11.dtd">
<svg xmlns="http://www.w3.org/2000/svg" version="1.1" width="1052px" height="230px" style="shape-rendering:geometricPrecision; text-rendering:geometricPrecision; image-rendering:optimizeQuality; fill-rule:evenodd; clip-rule:evenodd" xmlns:xlink="http://www.w3.org/1999/xlink">
<g><path style="opacity:1" fill="#fcfcfc" d="M -0.5,-0.5 C 350.167,-0.5 700.833,-0.5 1051.5,-0.5C 1051.5,76.1667 1051.5,152.833 1051.5,229.5C 700.833,229.5 350.167,229.5 -0.5,229.5C -0.5,152.833 -0.5,76.1667 -0.5,-0.5 Z"/></g>
<g><path style="opacity:1" fill="#1d1c1a" d="M 65.5,2.5 C 107.254,-1.71548 137.088,14.9512 155,52.5C 165.33,85.8784 158.496,115.045 134.5,140C 107.777,161.494 78.4438,165.827 46.5,153C 42.6641,150.916 38.9974,148.583 35.5,146C 42.5,145.667 49.5,145.333 56.5,145C 59.9166,142.679 60.2499,140.012 57.5,137C 46.505,136.5 35.505,136.333 24.5,136.5C 24.5,120.5 24.5,104.5 24.5,88.5C 34.5,88.5 44.5,88.5 54.5,88.5C 54.3345,92.5138 54.5012,96.5138 55,100.5C 56.3051,103.306 58.4718,104.14 61.5,103C 62.1258,102.25 62.6258,101.416 63,100.5C 63.6667,89.1667 63.6667,77.8333 63,66.5C 60.3333,63.8333 57.6667,63.8333 55,66.5C 54.501,70.8206 54.3343,75.1539 54.5,79.5C 44.5,79.5 34.5,79.5 24.5,79.5C 24.5,64.8333 24.5,50.1667 24.5,35.5C 46.1667,35.5 67.8333,35.5 89.5,35.5C 89.3336,43.1739 89.5003,50.8406 90,58.5C 91.3051,61.3064 93.4718,62.1397 96.5,61C 97.1905,59.9326 97.6905,58.7659 98,57.5C 98.4998,47.172 98.6665,36.8387 98.5,26.5C 73.4978,26.6666 48.4978,26.5 23.5,26C 35.3413,14.2475 49.3413,6.41415 65.5,2.5 Z"/></g>
<g><path style="opacity:1" fill="#1d1c1b" d="M 245.5,2.5 C 290.368,-0.84352 320.202,18.4898 335,60.5C 342.092,96.2388 331.259,125.072 302.5,147C 272.176,165.14 242.176,164.807 212.5,146C 217.833,145.667 223.167,145.333 228.5,145C 231.167,142.333 231.167,139.667 228.5,137C 222.175,136.5 215.842,136.334 209.5,136.5C 209.5,121.833 209.5,107.167 209.5,92.5C 218.839,92.3335 228.173,92.5002 237.5,93C 245.156,97.4199 251.989,102.92 258,109.5C 265.895,121.066 273.395,132.899 280.5,145C 285.887,145.784 291.22,145.618 296.5,144.5C 297.647,142.235 297.814,139.902 297,137.5C 293.21,136.864 289.377,136.197 285.5,135.5C 278.916,124.664 272.083,113.997 265,103.5C 260.614,98.6108 255.78,94.2775 250.5,90.5C 262.397,86.8087 271.23,79.4754 277,68.5C 280.655,48.4595 272.822,34.9595 253.5,28C 236.2,26.9044 218.867,26.0711 201.5,25.5C 214.042,13.564 228.709,5.89736 245.5,2.5 Z"/></g>
<g><path style="opacity:1" fill="#1d1c1b" d="M 421.5,2.5 C 460.877,-1.40128 489.711,13.932 508,48.5C 520.639,82.0876 514.805,111.921 490.5,138C 486.031,136.785 481.365,136.285 476.5,136.5C 463.047,100.147 449.38,63.8134 435.5,27.5C 419.844,26.3338 404.177,26.1671 388.5,27C 384.959,29.2825 384.626,31.9491 387.5,35C 397.184,35.1679 406.851,35.6679 416.5,36.5C 404.37,70.0837 391.703,103.417 378.5,136.5C 356.242,111.15 350.742,82.4838 362,50.5C 374.152,24.857 393.985,8.85695 421.5,2.5 Z"/></g>
<g><path style="opacity:1" fill="#1d1d1b" d="M 779.5,5.5 C 809.17,3.32288 833.503,13.4895 852.5,36C 848.506,33.4953 844.172,31.162 839.5,29C 836.833,28.3333 834.167,27.6667 831.5,27C 810.833,26.3333 790.167,26.3333 769.5,27C 766.833,29.6667 766.833,32.3333 769.5,35C 774.489,35.4993 779.489,35.6659 784.5,35.5C 784.5,69.1667 784.5,102.833 784.5,136.5C 779.489,136.334 774.489,136.501 769.5,137C 766.966,139.587 766.966,142.253 769.5,145C 788.5,145.667 807.5,145.667 826.5,145C 829.167,142.333 829.167,139.667 826.5,137C 815.505,136.5 804.505,136.333 793.5,136.5C 793.5,123.5 793.5,110.5 793.5,97.5C 805.505,97.6665 817.505,97.4999 829.5,97C 854.026,91.4905 864.86,76.3238 862,51.5C 876.086,86.3685 869.919,117.035 843.5,143.5C 810.641,169.788 776.641,171.288 741.5,148C 713.002,122.797 704.502,91.9639 716,55.5C 728.542,27.7829 749.708,11.1163 779.5,5.5 Z"/></g>
<g><path style="opacity:1" fill="#1d1c1a" d="M 982.5,162.5 C 975.535,163.341 968.535,163.674 961.5,163.5C 928.32,160.485 905.487,143.485 893,112.5C 881.47,73.3896 891.97,41.8896 924.5,18C 958.294,-0.608292 990.294,2.05837 1020.5,26C 997.5,26.3333 974.5,26.6667 951.5,27C 949.381,29.2185 949.048,31.7185 950.5,34.5C 955.77,35.4512 961.103,35.7846 966.5,35.5C 966.5,69.1667 966.5,102.833 966.5,136.5C 961.103,136.215 955.77,136.549 950.5,137.5C 949.048,140.282 949.381,142.782 951.5,145C 973.5,145.333 995.5,145.667 1017.5,146C 1007.4,154.718 995.728,160.218 982.5,162.5 Z"/></g>
<g><path style="opacity:1" fill="#1d1c1b" d="M 602.5,5.5 C 639.057,3.35348 666.224,18.0201 684,49.5C 698.996,87.0052 691.829,119.505 662.5,147C 630.593,169.533 598.26,170.199 565.5,149C 537.373,125.617 527.873,96.117 537,60.5C 544.03,39.8022 557.197,24.3022 576.5,14C 585.01,10.2178 593.677,7.38451 602.5,5.5 Z"/></g>
<g><path style="opacity:1" fill="#f8f8f8" d="M 577.5,26.5 C 598.169,26.3334 618.836,26.5 639.5,27C 661.635,32.124 671.802,45.9573 670,68.5C 667.559,78.2702 662.059,85.7702 653.5,91C 648.585,94.1243 643.252,96.1243 637.5,97C 625.505,97.4999 613.505,97.6665 601.5,97.5C 601.5,110.5 601.5,123.5 601.5,136.5C 612.505,136.333 623.505,136.5 634.5,137C 637.167,139.667 637.167,142.333 634.5,145C 615.5,145.667 596.5,145.667 577.5,145C 574.966,142.253 574.966,139.587 577.5,137C 582.489,136.501 587.489,136.334 592.5,136.5C 592.5,102.833 592.5,69.1667 592.5,35.5C 587.489,35.6659 582.489,35.4993 577.5,35C 574.899,32.1705 574.899,29.3371 577.5,26.5 Z"/></g>
<g><path style="opacity:1" fill="#1e1d1c" d="M 192.5,35.5 C 195.167,35.5 197.833,35.5 200.5,35.5C 200.667,68.835 200.5,102.168 200,135.5C 174.419,103.938 171.919,70.6049 192.5,35.5 Z"/></g>
<g><path style="opacity:1" fill="#1d1c1a" d="M 209.5,35.5 C 222.894,35.0755 236.227,35.5755 249.5,37C 257.464,39.6403 263.63,44.4736 268,51.5C 271.016,64.6302 266.182,73.7969 253.5,79C 248.923,80.6443 244.256,81.9776 239.5,83C 229.506,83.4998 219.506,83.6665 209.5,83.5C 209.5,67.5 209.5,51.5 209.5,35.5 Z"/></g>
<g><path style="opacity:1" fill="#1d1c1b" d="M 601.5,35.5 C 613.505,35.3335 625.505,35.5001 637.5,36C 659.909,42.0282 666.409,55.5282 657,76.5C 649.421,84.0291 640.255,87.8624 629.5,88C 620.173,88.4998 610.839,88.6665 601.5,88.5C 601.5,70.8333 601.5,53.1667 601.5,35.5 Z"/></g>
<g><path style="opacity:1" fill="#1d1c1b" d="M 793.5,35.5 C 805.505,35.3335 817.505,35.5001 829.5,36C 851.29,41.7466 857.956,54.9133 849.5,75.5C 842.024,83.7362 832.691,87.9028 821.5,88C 812.173,88.4998 802.839,88.6665 793.5,88.5C 793.5,70.8333 793.5,53.1667 793.5,35.5 Z"/></g>
<g><path style="opacity:1" fill="#1d1c1a" d="M 975.5,35.5 C 993.503,35.3334 1011.5,35.5001 1029.5,36C 1031.33,38.5 1033.17,41 1035,43.5C 1035.05,49.32 1035.88,54.9867 1037.5,60.5C 1040.04,60.8444 1042.2,61.8444 1044,63.5C 1047.3,77.1725 1047.3,90.8392 1044,104.5C 1043,105.5 1042,106.5 1041,107.5C 1039.84,118.156 1035.67,127.489 1028.5,135.5C 1010.85,136.5 993.179,136.833 975.5,136.5C 975.5,120.5 975.5,104.5 975.5,88.5C 985.5,88.5 995.5,88.5 1005.5,88.5C 1005.33,92.8461 1005.5,97.1794 1006,101.5C 1009.16,104.399 1011.82,104.065 1014,100.5C 1014.67,89.1667 1014.67,77.8333 1014,66.5C 1011.33,63.8333 1008.67,63.8333 1006,66.5C 1005.5,70.8206 1005.33,75.1539 1005.5,79.5C 995.5,79.5 985.5,79.5 975.5,79.5C 975.5,64.8333 975.5,50.1667 975.5,35.5 Z"/></g>
<g><path style="opacity:1" fill="#1d1d1c" d="M 15.5,36.5 C 15.8314,66.338 15.4981,96.0047 14.5,125.5C -3.06006,95.4781 -2.72672,65.8114 15.5,36.5 Z"/></g>
<g><path style="opacity:1" fill="#d1d1d1" d="M 15.5,36.5 C 16.8297,66.336 16.8297,96.336 15.5,126.5C 14.8933,126.376 14.56,126.043 14.5,125.5C 15.4981,96.0047 15.8314,66.338 15.5,36.5 Z"/></g>
<g><path style="opacity:1" fill="#1e1d1c" d="M 425.5,35.5 C 426.833,35.5 428.167,35.5 429.5,35.5C 436.863,55.9017 444.529,76.235 452.5,96.5C 436.167,97.8333 419.833,97.8333 403.5,96.5C 411.238,76.2839 418.571,55.9505 425.5,35.5 Z"/></g>
<g><path style="opacity:1" fill="#1d1d1b" d="M 399.5,106.5 C 418.5,106.5 437.5,106.5 456.5,106.5C 459.67,116.508 463.336,126.341 467.5,136C 460.833,136.333 454.167,136.667 447.5,137C 444.93,139.615 444.93,142.282 447.5,145C 458.5,145.333 469.5,145.667 480.5,146C 450.21,165.297 419.876,165.297 389.5,146C 396.191,145.831 402.858,145.331 409.5,144.5C 410.724,142.161 410.724,139.828 409.5,137.5C 402.892,136.538 396.226,136.205 389.5,136.5C 392.626,126.455 395.959,116.455 399.5,106.5 Z"/></g>
<g><path style="opacity:1" fill="#a1a19f" d="M 982.5,162.5 C 978.797,164.055 974.797,164.722 970.5,164.5C 967.314,164.498 964.314,164.165 961.5,163.5C 968.535,163.674 975.535,163.341 982.5,162.5 Z"/></g>
<g><path style="opacity:1" fill="#1c1c1c" d="M 626.5,197.5 C 633.833,197.5 641.167,197.5 648.5,197.5C 648.5,198.5 648.5,199.5 648.5,200.5C 645.167,200.5 641.833,200.5 638.5,200.5C 637.833,236.5 637.167,236.5 636.5,200.5C 633.167,200.5 629.833,200.5 626.5,200.5C 626.5,199.5 626.5,198.5 626.5,197.5 Z"/></g>
<g><path style="opacity:1" fill="#242424" d="M 380.5,197.5 C 383.91,197.457 387.243,197.957 390.5,199C 392.439,199.908 393.439,201.408 393.5,203.5C 385.431,198.57 378.264,199.57 372,206.5C 369.914,220.91 376.081,226.576 390.5,223.5C 391.484,220.572 391.817,217.572 391.5,214.5C 389.167,214.5 386.833,214.5 384.5,214.5C 384.5,213.5 384.5,212.5 384.5,211.5C 387.833,211.5 391.167,211.5 394.5,211.5C 394.5,216.167 394.5,220.833 394.5,225.5C 389.881,226.658 385.215,227.158 380.5,227C 369.825,224.161 365.992,217.328 369,206.5C 371.593,201.721 375.427,198.721 380.5,197.5 Z"/></g>
<g><path style="opacity:1" fill="#242424" d="M 534.5,197.5 C 539.743,197.022 544.076,198.689 547.5,202.5C 547,202.833 546.5,203.167 546,203.5C 537.924,198.42 531.257,199.753 526,207.5C 523.374,217.25 527.041,222.916 537,224.5C 540.812,224.677 543.979,223.343 546.5,220.5C 547.308,220.808 547.975,221.308 548.5,222C 542.624,227.979 535.958,228.979 528.5,225C 522.424,219.266 520.924,212.433 524,204.5C 526.701,200.748 530.201,198.415 534.5,197.5 Z"/></g>
<g><path style="opacity:1" fill="#1d1d1d" d="M 488.5,197.5 C 494.5,197.5 500.5,197.5 506.5,197.5C 506.5,198.5 506.5,199.5 506.5,200.5C 501.5,200.5 496.5,200.5 491.5,200.5C 491.5,203.833 491.5,207.167 491.5,210.5C 496.167,210.5 500.833,210.5 505.5,210.5C 505.5,211.5 505.5,212.5 505.5,213.5C 500.833,213.5 496.167,213.5 491.5,213.5C 491.5,217.167 491.5,220.833 491.5,224.5C 496.833,224.5 502.167,224.5 507.5,224.5C 507.5,225.5 507.5,226.5 507.5,227.5C 501.167,227.5 494.833,227.5 488.5,227.5C 488.5,217.5 488.5,207.5 488.5,197.5 Z"/></g>
<g><path style="opacity:1" fill="#1d1d1d" d="M 653.5,197.5 C 654.5,197.5 655.5,197.5 656.5,197.5C 656.5,207.5 656.5,217.5 656.5,227.5C 655.5,227.5 654.5,227.5 653.5,227.5C 653.5,217.5 653.5,207.5 653.5,197.5 Z"/></g>
<g><path style="opacity:1" fill="#222222" d="M 426.5,197.5 C 428.144,197.286 429.644,197.62 431,198.5C 436.333,206.5 441.667,214.5 447,222.5C 447.5,214.173 447.666,205.84 447.5,197.5C 448.5,197.5 449.5,197.5 450.5,197.5C 450.5,207.5 450.5,217.5 450.5,227.5C 448.856,227.714 447.356,227.38 446,226.5C 441.163,218.156 435.83,210.156 430,202.5C 429.5,210.827 429.334,219.16 429.5,227.5C 428.5,227.5 427.5,227.5 426.5,227.5C 426.5,217.5 426.5,207.5 426.5,197.5 Z"/></g>
<g><path style="opacity:1" fill="#1c1c1c" d="M 578.5,197.5 C 584.5,197.5 590.5,197.5 596.5,197.5C 596.5,198.5 596.5,199.5 596.5,200.5C 591.5,200.5 586.5,200.5 581.5,200.5C 581.5,203.833 581.5,207.167 581.5,210.5C 586.167,210.5 590.833,210.5 595.5,210.5C 595.5,211.5 595.5,212.5 595.5,213.5C 590.833,213.5 586.167,213.5 581.5,213.5C 581.5,217.167 581.5,220.833 581.5,224.5C 586.833,224.5 592.167,224.5 597.5,224.5C 597.5,225.5 597.5,226.5 597.5,227.5C 591.167,227.5 584.833,227.5 578.5,227.5C 578.5,217.5 578.5,207.5 578.5,197.5 Z"/></g>
<g><path style="opacity:1" fill="#1d1d1d" d="M 690.5,197.5 C 696.5,197.5 702.5,197.5 708.5,197.5C 708.5,198.5 708.5,199.5 708.5,200.5C 703.5,200.5 698.5,200.5 693.5,200.5C 693.5,203.833 693.5,207.167 693.5,210.5C 698.167,210.5 702.833,210.5 707.5,210.5C 707.5,211.5 707.5,212.5 707.5,213.5C 702.833,213.5 698.167,213.5 693.5,213.5C 693.5,217.167 693.5,220.833 693.5,224.5C 698.833,224.5 704.167,224.5 709.5,224.5C 709.5,225.5 709.5,226.5 709.5,227.5C 703.167,227.5 696.833,227.5 690.5,227.5C 690.5,217.5 690.5,207.5 690.5,197.5 Z"/></g>
<g><path style="opacity:1" fill="#242424" d="M 469.5,197.5 C 474.743,197.022 479.076,198.689 482.5,202.5C 482,202.833 481.5,203.167 481,203.5C 468.59,197.203 461.59,200.869 460,214.5C 463.059,223.945 469.226,226.778 478.5,223C 479.898,220.438 481.565,220.105 483.5,222C 477.624,227.979 470.958,228.979 463.5,225C 457.424,219.266 455.924,212.433 459,204.5C 461.701,200.748 465.201,198.415 469.5,197.5 Z"/></g>
<g><path style="opacity:1" fill="#1c1c1c" d="M 401.5,197.5 C 407.5,197.5 413.5,197.5 419.5,197.5C 419.5,198.5 419.5,199.5 419.5,200.5C 414.5,200.5 409.5,200.5 404.5,200.5C 404.5,203.833 404.5,207.167 404.5,210.5C 409.167,210.5 413.833,210.5 418.5,210.5C 418.5,211.5 418.5,212.5 418.5,213.5C 413.833,213.5 409.167,213.5 404.5,213.5C 404.5,217.167 404.5,220.833 404.5,224.5C 409.833,224.5 415.167,224.5 420.5,224.5C 420.5,225.5 420.5,226.5 420.5,227.5C 414.167,227.5 407.833,227.5 401.5,227.5C 401.5,217.5 401.5,207.5 401.5,197.5 Z"/></g>
<g><path style="opacity:1" fill="#1f1f1f" d="M 553.5,197.5 C 558.998,197.068 564.331,197.735 569.5,199.5C 574.522,206.437 572.856,211.27 564.5,214C 567.5,218.333 570.5,222.667 573.5,227C 572.056,227.781 570.723,227.614 569.5,226.5C 566.709,222.418 564.042,218.251 561.5,214C 559.866,213.506 558.199,213.34 556.5,213.5C 556.5,218.167 556.5,222.833 556.5,227.5C 555.5,227.5 554.5,227.5 553.5,227.5C 553.5,217.5 553.5,207.5 553.5,197.5 Z"/></g>
<g><path style="opacity:1" fill="#f6f6f6" d="M 556.5,200.5 C 559.85,200.335 563.183,200.502 566.5,201C 570.5,204 570.5,207 566.5,210C 563.183,210.498 559.85,210.665 556.5,210.5C 556.5,207.167 556.5,203.833 556.5,200.5 Z"/></g>
<g><path style="opacity:1" fill="#282828" d="M 661.5,197.5 C 662.5,197.5 663.5,197.5 664.5,197.5C 667.371,206.28 670.538,214.946 674,223.5C 677.342,214.975 680.175,206.308 682.5,197.5C 683.873,197.343 685.207,197.51 686.5,198C 682.128,207.577 678.461,217.41 675.5,227.5C 674.167,227.5 672.833,227.5 671.5,227.5C 668.364,217.426 665.031,207.426 661.5,197.5 Z"/></g>
<g><path style="opacity:1" fill="#242424" d="M 612.5,197.5 C 613.833,197.5 615.167,197.5 616.5,197.5C 619.67,207.508 623.67,217.174 628.5,226.5C 627.349,227.731 626.183,227.731 625,226.5C 624.069,224.541 623.236,222.541 622.5,220.5C 617.198,219.337 611.864,219.171 606.5,220C 605.214,222.022 604.214,224.189 603.5,226.5C 602.5,227.833 601.5,227.833 600.5,226.5C 604.789,216.926 608.789,207.26 612.5,197.5 Z"/></g>
<g><path style="opacity:1" fill="#efefef" d="M 613.5,201.5 C 616.315,205.796 618.648,210.462 620.5,215.5C 616.167,216.833 611.833,216.833 607.5,215.5C 609.492,210.848 611.492,206.181 613.5,201.5 Z"/></g>
<g><path style="opacity:1" fill="#232323" d="M 350.5,197.5 C 351.822,197.33 352.989,197.663 354,198.5C 357.995,208.18 362.162,217.68 366.5,227C 365.207,227.49 363.873,227.657 362.5,227.5C 362.64,220.724 359.307,218.058 352.5,219.5C 345.417,217.592 341.75,220.258 341.5,227.5C 340.325,227.719 339.325,227.386 338.5,226.5C 342.789,216.926 346.789,207.26 350.5,197.5 Z"/></g>
<g><path style="opacity:1" fill="#f1f1f1" d="M 351.5,201.5 C 354.315,205.796 356.648,210.462 358.5,215.5C 354.205,216.661 349.871,216.828 345.5,216C 347.601,211.195 349.601,206.362 351.5,201.5 Z"/></g>
</svg>
